<svg xmlns="http://www.w3.org/2000/svg" viewBox="0 0 100 100" fill="none">
  <defs>
    <linearGradient id="ckShield" x1="0" y1="0" x2="100" y2="100" gradientUnits="userSpaceOnUse">
      <stop offset="0%" stop-color="#38bdf8"/>
      <stop offset="55%" stop-color="#6366f1"/>
      <stop offset="100%" stop-color="#8b5cf6"/>
    </linearGradient>
    <linearGradient id="ckPlume" x1="0" y1="0" x2="0" y2="100" gradientUnits="userSpaceOnUse">
      <stop offset="0%" stop-color="#fde68a"/>
      <stop offset="100%" stop-color="#fbbf24"/>
    </linearGradient>
  </defs>

  <!-- Shield body -->
  <path d="M50 4 L88 16 V46 C88 70 72 88 50 96 C28 88 12 70 12 46 V16 Z"
        fill="url(#ckShield)" stroke="#0a1530" stroke-width="2.5"/>
  <path d="M50 4 L88 16 V46 C88 70 72 88 50 96 C28 88 12 70 12 46 V16 Z"
        fill="none" stroke="rgba(255,255,255,0.35)" stroke-width="1.5"/>

  <!-- Knight helmet crest (simplified plume) -->
  <path d="M50 20 C55 20 58 26 56 33 L60 46 L52 44 L50 52 L48 44 L40 46 L44 33 C42 26 45 20 50 20 Z"
        fill="url(#ckPlume)" opacity="0.95"/>

  <!-- Lock body -->
  <rect x="38" y="52" width="24" height="20" rx="3.5" fill="#0a1530" stroke="#e5e9f5" stroke-width="1.5"/>
  <path d="M42 52 V45 a8 8 0 0 1 16 0 V52" fill="none" stroke="#e5e9f5" stroke-width="3.2" stroke-linecap="round"/>
  <circle cx="50" cy="60" r="2.6" fill="#38bdf8"/>
  <rect x="48.8" y="60" width="2.4" height="6" rx="1.2" fill="#38bdf8"/>
</svg>
